<?xml version="1.0" encoding="UTF-8"?>
<!DOCTYPE svg PUBLIC "-//W3C//DTD SVG 1.1//EN" "http://www.w3.org/Graphics/SVG/1.1/DTD/svg11.dtd">
<svg xmlns="http://www.w3.org/2000/svg" version="1.1" width="2034px" height="2034px" style="shape-rendering:geometricPrecision; text-rendering:geometricPrecision; image-rendering:optimizeQuality; fill-rule:evenodd; clip-rule:evenodd" xmlns:xlink="http://www.w3.org/1999/xlink">
<g><path style="opacity:1" fill="#202124" d="M -0.5,-0.5 C 677.5,-0.5 1355.5,-0.5 2033.5,-0.5C 2033.5,677.5 2033.5,1355.5 2033.5,2033.5C 1355.5,2033.5 677.5,2033.5 -0.5,2033.5C -0.5,1355.5 -0.5,677.5 -0.5,-0.5 Z"/></g>
<g><path style="opacity:1" fill="#fefefe" d="M 1495.5,992.5 C 1515.36,999.062 1535.36,1005.56 1555.5,1012C 1565.13,1015.81 1574.13,1020.65 1582.5,1026.5C 1608.79,1047.49 1619.29,1074.82 1614,1108.5C 1607.91,1144.27 1588.07,1169.1 1554.5,1183C 1510.85,1199.65 1467.18,1199.65 1423.5,1183C 1385.7,1166.88 1362.04,1138.88 1352.5,1099C 1352.59,1097.89 1352.92,1096.89 1353.5,1096C 1364.19,1094.27 1374.85,1092.44 1385.5,1090.5C 1386.17,1090.83 1386.83,1091.17 1387.5,1091.5C 1398.18,1126.35 1421.18,1148.51 1456.5,1158C 1487.06,1165.2 1516.73,1162.54 1545.5,1150C 1578.21,1130.2 1587.04,1102.7 1572,1067.5C 1564.99,1058.83 1556.49,1052 1546.5,1047C 1524.89,1038.85 1502.89,1032.02 1480.5,1026.5C 1460.61,1020.02 1440.61,1013.52 1420.5,1007C 1411.32,1002.92 1402.66,998.082 1394.5,992.5C 1371.43,973.31 1361.93,948.643 1366,918.5C 1370.41,890.162 1384.91,868.662 1409.5,854C 1438.04,839.063 1468.37,833.397 1500.5,837C 1561.18,844.299 1598.85,877.466 1613.5,936.5C 1601.22,938.825 1588.89,940.825 1576.5,942.5C 1570.35,911.387 1552.69,889.554 1523.5,877C 1498.05,867.823 1472.38,867.156 1446.5,875C 1427.34,881.161 1413.51,893.328 1405,911.5C 1396.84,942.342 1407.67,963.509 1437.5,975C 1456.48,982.077 1475.81,987.91 1495.5,992.5 Z"/></g>
<g><path style="opacity:1" fill="#fefefe" d="M 418.5,843.5 C 429.833,843.5 441.167,843.5 452.5,843.5C 452.5,947.5 452.5,1051.5 452.5,1155.5C 507.167,1155.5 561.833,1155.5 616.5,1155.5C 616.5,1166.5 616.5,1177.5 616.5,1188.5C 550.5,1188.5 484.5,1188.5 418.5,1188.5C 418.5,1073.5 418.5,958.5 418.5,843.5 Z"/></g>
<g><path style="opacity:1" fill="#fefefe" d="M 663.5,843.5 C 674.833,843.5 686.167,843.5 697.5,843.5C 697.5,958.5 697.5,1073.5 697.5,1188.5C 686.167,1188.5 674.833,1188.5 663.5,1188.5C 663.5,1073.5 663.5,958.5 663.5,843.5 Z"/></g>
<g><path style="opacity:1" fill="#fefefe" d="M 770.5,843.5 C 782.171,843.333 793.838,843.5 805.5,844C 868.79,937.414 931.957,1030.91 995,1124.5C 996.488,1030.87 996.988,937.203 996.5,843.5C 1008.17,843.5 1019.83,843.5 1031.5,843.5C 1031.5,958.5 1031.5,1073.5 1031.5,1188.5C 1019.48,1188.83 1007.48,1188.5 995.5,1187.5C 932.829,1093.49 869.662,999.821 806,906.5C 805.5,1000.5 805.333,1094.5 805.5,1188.5C 793.833,1188.5 782.167,1188.5 770.5,1188.5C 770.5,1073.5 770.5,958.5 770.5,843.5 Z"/></g>
<g><path style="opacity:1" fill="#fefefe" d="M 1192.5,992.5 C 1186.34,997.83 1180.67,1003.66 1175.5,1010C 1181.04,1015.37 1186.37,1020.87 1191.5,1026.5C 1243.71,1080.4 1296.05,1134.23 1348.5,1188C 1333.5,1188.67 1318.5,1188.67 1303.5,1188C 1247.68,1130.35 1191.35,1073.18 1134.5,1016.5C 1133.5,1073.83 1133.17,1131.16 1133.5,1188.5C 1121.83,1188.5 1110.17,1188.5 1098.5,1188.5C 1098.5,1073.5 1098.5,958.5 1098.5,843.5C 1110.17,843.5 1121.83,843.5 1133.5,843.5C 1133.33,897.501 1133.5,951.501 1134,1005.5C 1186.53,951.971 1238.7,898.137 1290.5,844C 1305.5,843.333 1320.5,843.333 1335.5,844C 1287.27,893.065 1239.6,942.565 1192.5,992.5 Z"/></g>
<g><path style="opacity:1" fill="#c24a49" d="M 1192.5,992.5 C 1259.83,992.5 1327.17,992.5 1394.5,992.5C 1402.66,998.082 1411.32,1002.92 1420.5,1007C 1440.61,1013.52 1460.61,1020.02 1480.5,1026.5C 1384.17,1026.5 1287.83,1026.5 1191.5,1026.5C 1186.37,1020.87 1181.04,1015.37 1175.5,1010C 1180.67,1003.66 1186.34,997.83 1192.5,992.5 Z"/></g>
<g><path style="opacity:1" fill="#c24a49" d="M 1495.5,992.5 C 1592.5,992.5 1689.5,992.5 1786.5,992.5C 1787.48,1003.42 1787.81,1014.42 1787.5,1025.5C 1786.21,1025.26 1785.21,1025.6 1784.5,1026.5C 1717.17,1026.5 1649.83,1026.5 1582.5,1026.5C 1574.13,1020.65 1565.13,1015.81 1555.5,1012C 1535.36,1005.56 1515.36,999.062 1495.5,992.5 Z"/></g>
<g><path style="opacity:1" fill="#894343" d="M 1786.5,992.5 C 1788.48,1003.45 1789.14,1014.78 1788.5,1026.5C 1787.17,1026.5 1785.83,1026.5 1784.5,1026.5C 1785.21,1025.6 1786.21,1025.26 1787.5,1025.5C 1787.81,1014.42 1787.48,1003.42 1786.5,992.5 Z"/></g>
</svg>
